PathFileType	4	(X/Y/Z)	RUN4
DataRate	CameraRate	NumFrames	NumMarkers	Units	OrigDataRate	OrigDataStartFrame	OrigNumFrames
100	100	7	42	mm	100	278	128
Frame#	Time	LPSI			RPSI			RTH2			RTH3			LTH1			LTH2			LTH3			RTB1			RTB2			LTB1			LTB2			RCAL			RTOE			RMT5			LCAL			LTOE			LMT5			LACR			RACR			CLAV			C7			RUA1			RUA2			RUA3			RLEL			LUA1			LUA2			LUA3			LLEL			LMEL			RFAsuperior			RFAulna			LFAsuperior			LFAradius			LFAulna			RASI			RTB3			LTB3			RMEL			RFAradius			RTH1			LASI		
		X1	Y1	Z1	X2	Y2	Z2	X3	Y3	Z3	X4	Y4	Z4	X5	Y5	Z5	X6	Y6	Z6	X7	Y7	Z7	X8	Y8	Z8	X9	Y9	Z9	X10	Y10	Z10	X11	Y11	Z11	X12	Y12	Z12	X13	Y13	Z13	X14	Y14	Z14	X15	Y15	Z15	X16	Y16	Z16	X17	Y17	Z17	X18	Y18	Z18	X19	Y19	Z19	X20	Y20	Z20	X21	Y21	Z21	X22	Y22	Z22	X23	Y23	Z23	X24	Y24	Z24	X25	Y25	Z25	X26	Y26	Z26	X27	Y27	Z27	X28	Y28	Z28	X29	Y29	Z29	X30	Y30	Z30	X31	Y31	Z31	X32	Y32	Z32	X33	Y33	Z33	X34	Y34	Z34	X35	Y35	Z35	X36	Y36	Z36	X37	Y37	Z37	X38	Y38	Z38	X39	Y39	Z39	X40	Y40	Z40	X41	Y41	Z41	X42	Y42	Z42	

278	  2.780000	848.059310	1114.179340	-432.454948	830.585588	1112.769183	-319.478477	963.829455	803.923288	-205.633587	1095.496342	711.434050	-203.717644	924.261133	910.358573	-532.983712	801.572480	786.419440	-492.804597	812.586977	643.589615	-480.012007	1119.546051	486.160657	-265.109217	1021.831227	507.485836	-207.657679	767.401621	416.805915	-404.709220	639.012801	368.640745	-453.858136	797.943568	333.104718	-284.552145	984.726132	176.887748	-284.965903	924.176236	188.312114	-195.409958	445.378047	211.207197	-366.266492	627.190959	 64.789662	-333.163555	567.722641	 48.806848	-428.332382	994.290629	1536.458258	-520.677723	960.438117	1526.580519	-199.109496	1037.486785	1491.819771	-319.300156	921.363086	1556.441156	-371.695601	825.664746	1467.232384	-159.101133	842.911075	1407.070184	-109.555702	745.034133	1364.838283	-80.861487	682.294606	1325.478138	-64.965595	903.087661	1438.373965	-586.265861	935.612222	1362.059048	-606.023154	865.932566	1297.825773	-638.519462	849.951201	1232.930250	-660.012590	825.418118	1210.539711	-572.304570	752.602838	1237.973668	-40.032486	844.443291	1100.966212	-59.324825	925.150721	1200.576557	-640.200178	1069.434156	1252.432062	-530.579279	1084.477258	1186.638665	-555.749398	981.955414	1053.218392	-233.016815	976.376531	360.748712	-276.237515	625.461104	251.414784	-388.456071	689.947405	1291.702545	-147.293190	889.764670	1127.812618	-103.973412	924.138204	948.168456	-179.001522	1007.727617	1054.966544	-490.662136	
279	  2.790000	852.632426	1119.855730	-434.207365	833.176992	1120.290429	-321.103606	965.979430	812.477469	-204.519653	1096.855358	720.401478	-205.026186	925.050770	915.317101	-532.738185	796.133692	797.049108	-493.965200	799.884551	654.256624	-482.305587	1134.410543	490.319460	-265.538458	1034.339337	501.467298	-209.221685	746.388104	428.291035	-409.526260	617.142540	382.453612	-457.456413	830.886014	303.847831	-288.868296	1033.415515	168.700445	-285.871550	970.502409	173.929052	-196.979555	426.844953	231.209813	-371.251443	591.898885	 66.716921	-334.849541	532.106529	 54.889140	-430.252045	996.888412	1544.610928	-518.609704	958.787499	1533.427212	-198.377803	1037.034234	1499.232902	-316.839791	921.305485	1562.910820	-370.871658	822.619991	1477.085709	-161.477847	837.853211	1416.270489	-111.788964	738.238961	1376.145387	-86.320341	676.251624	1336.469477	-70.793902	906.534484	1447.741272	-586.236526	939.337818	1371.597167	-606.392365	869.333841	1308.163354	-640.389827	854.415894	1242.755078	-662.167813	828.606143	1219.087312	-575.047633	744.622883	1249.229027	-45.062092	838.165574	1113.429880	-62.368659	930.040050	1212.649034	-640.672481	1069.904968	1269.213947	-528.330656	1087.901434	1203.783110	-552.692424	982.954354	1061.360357	-231.810031	1005.849722	350.642560	-278.166297	603.972400	263.720047	-393.595045	686.028552	1302.232672	-153.108883	885.153549	1141.837639	-103.981906	926.023231	957.873955	-177.445446	1012.657637	1060.190573	-491.427046	
280	  2.800000	856.620441	1125.038076	-435.487498	835.790307	1126.867158	-322.337159	967.277628	819.661573	-204.397128	1096.193847	726.767904	-207.203231	925.921129	920.055613	-532.936844	791.829218	807.137675	-494.882839	788.957224	664.798561	-484.011686	1147.715440	493.026031	-266.177462	1046.741980	493.635530	-210.323911	727.846325	440.046227	-413.439655	597.997939	396.511465	-461.019277	865.703141	275.400082	-292.827785	1081.542656	162.729069	-287.828338	1017.427910	160.992074	-199.651787	412.052805	251.792904	-377.403877	558.156881	 70.701140	-337.158229	498.640265	 63.235840	-433.031268	999.392129	1552.220995	-516.450695	957.639516	1539.493366	-197.764994	1036.653785	1505.582467	-314.570533	921.341891	1568.633229	-370.046400	820.235778	1486.007361	-163.605058	833.619106	1424.593909	-113.960381	733.263538	1386.636920	-91.598305	672.879852	1346.518375	-75.251830	909.697411	1456.579170	-586.124075	942.534813	1380.818217	-606.959626	872.279792	1318.203825	-642.451888	858.539170	1252.246863	-664.524339	831.644629	1227.914696	-578.046698	738.219324	1258.900177	-50.029797	832.725422	1124.607027	-65.787668	934.376934	1224.270122	-641.452347	1070.190253	1284.617253	-526.733742	1090.924018	1219.591381	-550.450693	984.253243	1068.105342	-230.689294	1034.832240	340.751115	-280.177061	584.981682	276.152535	-398.719121	684.494108	1311.878500	-157.618436	881.293567	1154.656000	-104.204611	927.021260	966.608002	-175.693943	1017.002638	1064.920596	-491.719531	
281	  2.810000	859.878188	1129.689959	-436.265897	838.149409	1132.235275	-323.263789	967.430345	824.905036	-205.982156	1093.568391	730.367182	-210.037125	926.760117	924.587319	-533.595556	788.694766	816.755945	-495.117971	780.039519	674.886704	-484.814367	1159.478865	494.311705	-267.200232	1059.336924	484.187598	-210.833585	712.404245	451.409862	-416.032050	582.268605	410.113720	-464.420145	901.854678	248.417958	-295.988287	1128.426780	158.809272	-291.375897	1064.529624	149.702638	-203.478357	400.862706	272.769859	-384.756827	526.187123	 77.312745	-339.974422	467.203033	 73.943020	-436.078921	1001.835222	1559.121718	-514.337201	956.865521	1544.704643	-197.275824	1036.323908	1510.633468	-312.744430	921.524569	1573.513935	-369.321457	818.346434	1493.816601	-165.516169	830.105090	1431.909069	-115.944043	729.844571	1395.780715	-96.269577	670.512980	1355.459073	-79.355464	912.632461	1464.568648	-586.000972	945.355749	1389.401565	-607.583994	875.013917	1327.535984	-644.571394	862.321959	1261.059831	-667.049109	834.265927	1236.560501	-581.079217	733.058216	1267.326774	-54.836667	828.269503	1134.367736	-69.570657	938.130388	1235.074295	-642.440788	1070.343071	1298.503443	-525.679692	1093.418131	1233.723260	-548.674157	985.799033	1073.182211	-229.885405	1063.006252	331.211261	-282.322886	568.506909	288.446551	-403.504788	683.367938	1320.546667	-161.858145	878.265331	1166.114595	-104.667094	927.438438	973.635451	-174.207669	1020.617613	1069.120056	-491.509706	
282	  2.820000	862.384445	1133.751365	-436.593779	839.967646	1136.445120	-323.759988	966.149683	827.794813	-208.879529	1089.390181	731.218522	-212.757690	927.544432	928.959556	-534.563509	786.927788	825.544010	-494.597528	773.579255	683.871391	-484.882363	1169.546983	494.310176	-268.600837	1072.041044	473.458713	-210.741127	700.381816	461.492447	-417.145706	570.391810	422.486276	-467.649418	938.600435	223.437189	-298.141577	1173.202821	156.873831	-296.841585	1111.212207	140.241454	-208.456531	391.731591	293.842509	-392.924396	495.932031	 87.114830	-343.027809	437.725066	 87.169587	-439.104212	1004.207337	1565.114410	-512.407056	956.385085	1549.030521	-196.856093	1036.122962	1514.428395	-311.412937	921.857878	1577.536601	-368.755365	816.832551	1500.418814	-167.244208	827.236649	1438.078288	-117.707246	727.217709	1403.226360	-100.185858	667.731822	1363.008845	-83.936726	915.410695	1471.543207	-585.899541	947.990936	1397.049647	-608.175439	877.676556	1335.876904	-646.677576	865.739413	1268.955021	-669.660068	836.244111	1244.209716	-584.053810	728.810199	1274.790273	-59.387984	824.931109	1142.648535	-73.576972	941.337186	1244.673161	-643.589936	1070.366749	1310.541091	-524.988586	1095.161649	1245.734146	-546.894718	987.289773	1076.668527	-229.493962	1090.183161	322.292875	-284.654983	553.952281	300.472834	-407.496837	681.355593	1327.978528	-166.575594	876.061859	1176.078766	-105.275518	927.938488	978.102661	-173.623344	1023.481208	1072.728958	-490.849104	
283	  2.830000	864.155367	1137.110916	-436.583814	841.207712	1139.745517	-323.531335	963.530470	828.392596	-211.678718	1084.305643	729.536701	-214.556016	928.530464	932.993493	-535.491667	786.757866	832.609585	-493.753536	770.212934	690.786206	-484.633471	1177.539086	493.085633	-270.195501	1084.254540	461.916854	-210.258968	691.523391	469.504527	-416.937795	562.071802	433.336937	-470.834669	975.004374	200.686955	-299.400106	1214.801121	157.231354	-304.009822	1156.638261	132.830573	-214.599854	382.052439	314.759621	-401.324391	467.373647	100.459257	-345.936207	410.632425	102.978603	-442.238554	1006.433453	1569.988779	-510.651233	956.170594	1552.459203	-196.403615	1036.159726	1517.247498	-310.366674	922.304932	1580.731461	-368.306649	815.651073	1505.787019	-168.788549	824.986288	1442.959041	-119.260909	724.696939	1408.990570	-103.508389	664.401071	1368.849781	-88.907304	918.086372	1477.445118	-585.810893	950.535783	1403.517778	-608.721586	880.264376	1343.063634	-648.762648	868.752880	1275.785666	-672.292515	837.640648	1250.423643	-587.041738	725.413540	1281.128368	-63.570001	822.794821	1149.429420	-77.538465	944.039878	1252.701748	-644.840532	1070.311564	1320.275679	-524.528178	1096.023178	1255.157179	-544.844880	988.376365	1078.986790	-229.435032	1115.790169	314.152465	-287.130335	540.274243	312.447242	-410.518215	678.840441	1333.838915	-171.542190	874.662555	1184.452271	-105.943358	928.642539	979.637720	-174.202183	1025.609119	1075.636221	-489.851707	
284	  2.840000	865.168812	1139.614369	-436.375947	842.071970	1142.143343	-322.555851	960.106825	827.252340	-213.063013	1078.701930	725.694693	-215.247264	930.162265	936.175709	-535.967193	788.272390	836.996335	-493.276949	770.457524	694.707406	-484.413180	1183.039043	490.641542	-271.903983	1095.037363	450.155726	-209.804441	685.200569	475.101224	-415.900521	556.375449	443.045122	-474.090588	1009.971032	180.199043	-299.950562	1251.995681	160.341046	-312.280612	1199.658129	127.839979	-221.898301	369.921523	335.528777	-409.521287	440.874861	117.252762	-348.424467	386.629587	121.104869	-445.756579	1008.394265	1573.608025	-508.988514	956.238759	1554.970264	-195.809745	1036.455800	1519.360831	-309.347720	922.810980	1583.128063	-367.828201	814.818484	1509.875996	-170.089983	823.371959	1446.478745	-120.569032	722.214178	1413.266284	-106.442311	661.384279	1372.801009	-93.551933	920.644339	1482.209474	-585.745450	952.936694	1408.649111	-609.241317	882.698258	1348.980921	-650.830682	871.335804	1281.457696	-674.959193	838.757688	1255.364581	-590.158641	723.026140	1285.863804	-67.285417	821.895693	1154.688847	-81.160941	946.225631	1258.899795	-646.113719	1070.254407	1327.308022	-524.192438	1096.030902	1261.640594	-542.588516	988.913221	1080.628289	-229.521416	1138.881902	306.807885	-289.635236	526.736766	324.775261	-412.878222	677.057407	1337.939718	-175.987459	874.116733	1191.161127	-106.669619	929.156882	978.785437	-175.577600	1026.979007	1077.687742	-488.658033	
